<?xml version="1.0" encoding="UTF-8"?>
<svg width="16px" height="16px" viewBox="0 0 16 16" version="1.1" xmlns="http://www.w3.org/2000/svg" xmlns:xlink="http://www.w3.org/1999/xlink">
    <title>提示</title>
    <g id="提示" stroke="none" stroke-width="1" fill="none" fill-rule="evenodd">
        <g id="编组" fill="#666666" fill-rule="nonzero">
            <path d="M7.99923809,5.15223619 C8.8715718,5.15105795 9.68170752,5.6037469 10.1379048,6.34728679 L9.35809523,6.97128679 C9.15819204,6.57880053 8.79831065,6.29195056 8.37112894,6.18460746 C7.94394724,6.07726436 7.49121588,6.15991934 7.12952381,6.41128679 L7.11047619,6.42423916 L7.09904763,6.43300107 C7.09008859,6.43950929 7.0811992,6.44611284 7.07238095,6.45281058 L3.35390477,9.24176297 C5.56723809,11.7579534 9.39619048,12.0585249 11.9767619,9.89319154 L14.3939048,7.86500107 L14.999619,8.64442963 L12.6110476,10.6490011 C9.59923809,13.1762392 5.12038095,12.8059534 2.56266667,9.83528679 C2.54257588,9.81179839 2.52263894,9.78817884 2.50285714,9.76442963 L1.92723809,9.07871535 L6.472,5.66995344 L6.51580953,5.63719154 L6.56419048,5.60100107 C6.98587561,5.30838457 7.48647492,5.15144855 7.99923809,5.15223619 Z M13.4377143,5.49242963 C13.4579047,5.51566772 13.4777143,5.53928677 13.4975238,5.56328679 L14.0731429,6.24900107 L9.52838095,9.65776297 C9.51389067,9.66883376 9.49928672,9.67975497 9.48457144,9.69052488 L9.43619048,9.72671535 C9.0143988,10.0194064 8.51365501,10.1763461 8.00076191,10.1754808 C7.1284282,10.1766585 6.31829248,9.72396951 5.86209523,8.98042963 L6.64190477,8.35604868 C6.84180796,8.74853494 7.20168935,9.03538491 7.62887106,9.14272801 C8.05605276,9.2500711 8.50878412,9.16741613 8.87047619,8.91604868 L8.88952381,8.90347726 L8.90057144,8.89471535 L8.92723809,8.87490583 L12.6460952,6.08595344 C10.4327619,3.56976297 6.60342856,3.26919154 4.02285714,5.43452488 L1.60609523,7.46271535 L1,6.68328679 L3.38857144,4.67871535 C6.40076191,2.15147726 10.88,2.52176297 13.4377143,5.49242963 Z" id="形状结合"></path>
        </g>
    </g>
</svg>