<?xml version="1.0" encoding="UTF-8"?>
<svg width="62px" height="62px" viewBox="0 0 62 62" version="1.1" xmlns="http://www.w3.org/2000/svg" xmlns:xlink="http://www.w3.org/1999/xlink">
    <title>重新摇卦</title>
    <defs>
        <rect id="path-1" x="0" y="0" width="62" height="62"></rect>
    </defs>
    <g id="重新摇卦" stroke="none" stroke-width="1" fill="none" fill-rule="evenodd">
        <g id="编组">
            <mask id="mask-2" fill="white">
                <use xlink:href="#path-1"></use>
            </mask>
            <g id="矩形"></g>
            <path d="M31,1 C47.5685425,1 61,14.4314575 61,31 C61,47.5685425 47.5685425,61 31,61 C14.4314575,61 1,47.5685425 1,31 C1,14.4314575 14.4314575,1 31,1 Z M31,2 C14.9837423,2 2,14.9837423 2,31 C2,47.0162577 14.9837423,60 31,60 C47.0162577,60 60,47.0162577 60,31 C60,14.9837423 47.0162577,2 31,2 Z M31,4 C45.9116882,4 58,16.0883118 58,31 C58,45.9116882 45.9116882,58 31,58 C16.0883118,58 4,45.9116882 4,31 C4,16.0883118 16.0883118,4 31,4 Z M31,4.5 C16.3644541,4.5 4.5,16.3644541 4.5,31 C4.5,45.6355459 16.3644541,57.5 31,57.5 C45.6355459,57.5 57.5,45.6355459 57.5,31 C57.5,16.3644541 45.6355459,4.5 31,4.5 Z M47.4993587,26.7717197 C47.8454652,28.1751493 48.0070743,29.581447 47.9997628,30.9643192 C47.9994116,30.9760125 47.9997117,30.9880048 48,31 L47.9981399,31.2397801 C47.9093961,37.261611 44.6489036,43.0475003 39.0017957,46.0466762 C32.1311822,49.6955167 23.9062382,48.0596147 18.864013,42.5779973 C18.3568749,42.3646927 18,41.8601834 18,41.2704088 C18,40.4882918 18.627685,39.8540434 19.4017083,39.8540434 C19.9108088,39.8540434 20.3520666,40.1310845 20.5976459,40.5412639 L20.6464253,40.4984897 C24.226108,44.2663049 29.5966132,46.1293919 35.0209441,44.9492763 C35.9764088,44.741401 36.8919568,44.4481909 37.7614489,44.0792545 L37.7397912,44.0336757 C42.5884124,41.4829052 45.9611735,36.4089005 46.1171249,30.4784574 C46.1338666,29.8427899 46.1132072,29.2149241 46.0571755,28.5970307 L46.0449244,28.4671984 C44.6798852,20.7361466 38.0823687,14.8717949 30.1441012,14.8717949 C21.4954958,14.8717949 14.4330542,21.8316239 14,30.5835726 C14.433905,21.3501026 21.8763679,14 30.9948953,14 L31.1657615,14.0015251 C38.6989249,13.8983787 45.5916022,19.0360203 47.4993587,26.7717197 Z M35.6823517,19.4186185 C36.0637476,19.3797576 36.4450405,19.5647511 36.6329249,19.9181103 C36.8820839,20.3867103 36.6961874,20.9729919 36.2177919,21.2273593 C35.9031356,21.394665 35.5421534,21.3736884 35.259699,21.208637 L35.2431768,21.2502953 C31.8303934,20.1692266 27.9175575,20.8178807 24.940927,23.3075371 C23.3052546,24.6756276 22.1742532,26.4136371 21.570193,28.2855232 C21.0926157,30.6058083 21.3718936,33.1323645 22.5347307,35.4606563 C22.6390687,35.6695874 22.7489707,35.8738266 22.8641478,36.0732696 C26.1939559,40.717572 32.258494,42.424291 37.1212356,39.8387254 C42.2869444,37.0920693 44.1988271,30.5113899 41.5571621,24.9191445 C44.3578911,30.8117717 42.3483596,37.7563805 36.901972,40.6522761 L36.7049574,40.7547216 C32.6022735,43.0408729 27.3402998,42.3735476 23.7012416,38.9522028 C22.6998234,38.0340222 21.8952785,36.9663077 21.2980495,35.8064637 C21.2547593,35.7270818 21.21335,35.6469889 21.1729043,35.5665618 C21.1527434,35.530717 21.1319803,35.4941526 21.1113669,35.4574492 C19.2501034,31.6424583 19.5295499,27.1051871 21.8937713,23.7157369 L22.161,23.915 L22.3189525,23.6948917 C25.4388637,19.4466247 30.9169124,17.8239177 35.6823517,19.4186185 Z" id="形状结合" fill="#333333" fill-rule="nonzero" mask="url(#mask-2)"></path>
        </g>
    </g>
</svg>