<?xml version="1.0" encoding="UTF-8"?>
<svg width="62px" height="62px" viewBox="0 0 62 62" version="1.1" xmlns="http://www.w3.org/2000/svg" xmlns:xlink="http://www.w3.org/1999/xlink">
    <title>开始摇卦</title>
    <defs>
        <rect id="path-1" x="0" y="0" width="62" height="62"></rect>
    </defs>
    <g id="开始摇卦" stroke="none" stroke-width="1" fill="none" fill-rule="evenodd">
        <g id="编组">
            <mask id="mask-2" fill="white">
                <use xlink:href="#path-1"></use>
            </mask>
            <g id="矩形"></g>
            <path d="M31,1 C47.5685425,1 61,14.4314575 61,31 C61,47.5685425 47.5685425,61 31,61 C14.4314575,61 1,47.5685425 1,31 C1,14.4314575 14.4314575,1 31,1 Z M31,2 C14.9837423,2 2,14.9837423 2,31 C2,47.0162577 14.9837423,60 31,60 C47.0162577,60 60,47.0162577 60,31 C60,14.9837423 47.0162577,2 31,2 Z M31,4 C45.9116882,4 58,16.0883118 58,31 C58,45.9116882 45.9116882,58 31,58 C16.0883118,58 4,45.9116882 4,31 C4,16.0883118 16.0883118,4 31,4 Z M31,4.5 C16.3644541,4.5 4.5,16.3644541 4.5,31 C4.5,45.6355459 16.3644541,57.5 31,57.5 C45.6355459,57.5 57.5,45.6355459 57.5,31 C57.5,16.3644541 45.6355459,4.5 31,4.5 Z M39.1515715,31.7040785 L39.6979589,31.8171078 L40.1719554,31.9272822 C40.2533735,32.010451 40.3446872,32.0620305 40.4458966,32.0820208 C40.547106,32.1020111 40.6896057,32.0986349 40.8733956,32.0718924 L41.0447667,31.8171078 L41.5127037,31.8171078 C41.61526,31.8905574 41.7515985,31.9272822 41.9217191,31.9272822 C42.1769,31.9272822 42.4193338,31.813558 42.5262537,31.8171078 C42.6331737,31.8206577 42.5262537,31.8820563 42.7141098,31.9535902 C42.7620788,31.9718563 42.8556732,31.8390244 42.9177771,31.8564509 C42.9761093,31.872819 43.0478441,31.9810825 43.1540649,32.0277261 C43.1765963,32.0376201 43.2373112,31.9152365 43.2710653,31.9272822 C43.3345899,31.949952 43.4301384,32.0405693 43.5577109,32.199134 C43.6329607,32.2688205 43.5912703,32.4299215 43.4326396,32.6824369 C43.3879886,32.7535142 43.2392318,32.6955995 43.1794004,32.7758299 C43.1267801,32.8463907 43.2157518,33.1435021 43.1267035,33.2902398 C43.0711967,33.3817064 42.9820033,33.4416642 42.8591235,33.4701133 C42.8982259,34.086347 42.9177771,34.3944638 42.9177771,34.3944638 C42.9177771,34.3944638 42.9525782,34.6031981 42.8591235,34.6599583 C42.7610501,34.7195237 42.6234473,34.807834 42.4513747,34.9020405 L42.4020613,34.9083842 L42.2604942,34.8948978 C42.2389852,34.8942374 42.2208045,34.895869 42.2093804,34.9020405 C42.1277154,34.9461576 42.1660735,35.141946 42.0782041,35.1905278 C42.0347165,35.2145715 41.9158792,35.3012526 41.8708365,35.3250936 C41.8034053,35.3607847 41.939595,35.6844675 41.8708365,35.7205713 C41.7670471,35.7750692 41.6631509,35.7313492 41.5528337,35.777384 C41.4540643,35.8185999 41.4537864,35.9167518 41.3540274,35.9509714 C41.2202458,35.9968616 41.1000811,35.9205749 40.966824,35.9509714 C40.8894657,35.9686172 40.7827879,36.0890238 40.7097478,36.1098631 C40.5184332,36.1644475 40.406138,36.2893314 40.274013,36.2980634 C40.1124832,36.3087388 39.9853426,36.2980634 39.9853426,36.2980634 C39.9853426,36.2980634 39.8594547,36.3763355 39.8898228,36.5336928 C39.9011671,36.5924757 40.0605955,36.6798746 40.0984899,36.8098102 C40.1222139,36.8911572 39.9181903,37.057131 39.951202,37.247357 C39.9692201,37.3511838 40.0428045,37.5550941 40.1719554,37.8590878 C40.383079,37.9257406 40.5388772,37.9582825 40.6393502,37.9567136 C40.7061396,37.9556707 40.7722481,37.7948758 40.8372346,37.793861 C40.9378018,37.7922906 41.209659,37.8603971 41.3059025,37.8590878 C41.5954366,37.8551488 41.8681261,37.9567136 42.1277291,37.9567136 C42.3916102,37.9567136 42.6740139,37.8155616 42.9822313,37.793861 C43.2428115,37.7755144 43.5112274,37.8574469 43.734051,37.8590878 C44.0149775,37.8611565 44.2310091,37.820549 44.3131502,37.8023991 L44.3491581,37.793861 L44.3938084,37.8013719 C44.4785916,37.8172827 44.6702216,37.861061 44.8467295,37.9567136 C45.0405982,38.0617744 45.7325532,38.3131871 45.5233343,38.430167 C45.4863436,38.4508496 45.3357429,38.7407399 45.0624849,38.8012954 C44.9536533,38.8254131 44.7999877,38.6242155 44.5832257,38.660038 C44.521368,38.6702607 44.4381553,38.9650874 44.3491581,38.9807916 C44.2875895,38.9916558 44.1973944,38.6453665 44.0981799,38.660038 C43.9863719,38.6765718 43.8673485,38.9934531 43.6180938,39.0430015 C43.499145,39.0666468 43.3131485,38.8962763 43.0891175,38.929678 C42.9726074,38.947049 42.9268598,39.1013398 42.7141098,39.1402625 C42.569468,39.1667248 42.4438752,39.0944305 42.1277291,39.1402625 C42.0397565,39.153016 41.8511443,39.0710338 41.7027766,39.0965711 C41.6690352,39.1023787 41.6351977,39.2660274 41.5907342,39.2753297 C41.5168592,39.2907852 41.3811805,39.1127818 41.2115035,39.1402625 C41.1662071,39.1475987 41.2218399,39.3284776 41.1502723,39.3481889 C41.0101845,39.3867724 40.6487908,39.406874 40.0660912,39.4084938 C40.0761563,39.8096658 40.0869559,40.0902954 40.0984899,40.2503826 C40.1115564,40.4317418 40.1719554,40.6112238 40.1719554,40.7364162 C40.1719554,40.8774155 40.0826657,41.019137 40.0660912,41.2223317 C40.0543397,41.3663997 40.0543397,41.6278009 40.0660912,42.0065352 C40.0380351,42.1693722 40.1250855,42.2317903 40.3272422,42.1937893 C40.4072317,42.178753 40.6047631,42.2674912 40.9136475,42.2448093 C41.0450244,42.2351621 41.2336395,42.1828592 41.5127037,42.1535532 C41.6144894,42.1428641 41.73407,42.3305238 41.9217191,42.3131263 C42.0503619,42.3011994 42.2784903,42.3311113 42.5907961,42.2448093 C42.6487094,42.2288057 42.7566566,42.3975293 42.8591235,42.3509832 C42.9148653,42.3256622 43.0809358,42.2732643 43.357335,42.1937893 C43.3648096,41.9041883 43.3899111,41.7159633 43.4326396,41.6291145 C43.4560428,41.5815457 43.6082403,41.643504 43.770063,41.5126939 C43.8211386,41.4714068 43.7384125,41.2591826 43.82766,41.1753995 C43.893834,41.1132771 44.1456893,41.1132771 44.5832257,41.1753995 C44.7588949,41.2535212 44.8467295,41.3257604 44.8467295,41.3921172 C44.8467295,41.4174284 44.6944068,41.4863277 44.6461434,41.6291145 C44.6254887,41.690221 44.7294953,41.8798086 44.6461434,42.0065352 C44.624029,42.0401574 44.3595638,41.9654199 44.3491581,42.0065352 C44.3215383,42.1156679 44.4108744,42.3290955 44.3944017,42.6207916 C44.3928069,42.649031 44.3698475,42.6873451 44.3255234,42.735734 L44.291822,42.7690785 C44.3064382,42.8133493 44.3249304,42.9157634 44.3491581,43.0787677 C44.3690251,43.212433 44.287059,43.2919919 44.3117898,43.4879699 C44.3169432,43.5288076 44.4386934,43.6390706 44.4521444,43.6965169 C44.4774634,43.8046484 44.494762,44.0083876 44.5040401,44.3077346 C44.4087153,44.3202358 44.3372216,44.3296117 44.2895592,44.3358623 L44.2180655,44.3452382 C44.2180655,44.3452382 44.1072133,44.9708656 43.9415163,45.1371613 C43.8836172,45.1952696 43.7370315,45.1777296 43.6180938,45.2669853 C43.5397961,45.325743 43.5963085,45.481232 43.4326396,45.6053108 C43.3582714,45.66169 43.218717,45.7159505 43.0407529,45.8199733 C42.9589162,45.8678081 42.8429878,45.9982729 42.6624335,46.1071802 C42.597639,46.1462631 42.4810557,46.1963713 42.3126837,46.2575047 C42.0496562,46.3308718 41.870757,46.3688452 41.7759861,46.3714247 C41.6891088,46.3737894 41.6107982,46.2477072 41.5528337,46.2575047 C41.4739127,46.2708444 41.5254575,46.3495888 41.4522165,46.3714247 C41.1900096,46.4495985 40.8358613,46.5022341 40.6393502,46.5022341 C40.2285254,46.5022341 39.9991427,46.458631 39.951202,46.3714247 C39.7761093,46.3593839 39.6254795,46.3593839 39.4993128,46.3714247 C39.3831456,46.3825112 39.2498149,46.5086267 39.1052947,46.5022341 C38.9328653,46.494607 38.8299933,46.2918094 38.5766083,46.2575047 C38.4771902,46.2440449 38.3589321,46.4518014 38.1653168,46.4515052 C38.0610287,46.4513456 37.880049,46.4126538 37.6223778,46.3354298 C37.5719765,46.3203245 37.5145612,46.2442413 37.450132,46.1071802 C37.3056719,46.1446625 37.1391058,46.1634037 36.9504338,46.1634037 C36.8933968,46.1634037 36.7365124,46.0056191 36.5302926,45.8854566 C36.475842,45.8537287 36.4042373,45.9279103 36.3464359,45.8854566 C36.2161668,45.7897772 35.9760571,45.7308479 35.6971332,45.4886125 C35.5704127,45.3785604 35.316074,45.3008824 35.0599684,45.0441372 C34.9500939,44.9339884 34.9231184,44.6895077 34.7022487,44.4025493 C34.6452746,44.3285274 34.5897,44.2277094 34.5355248,44.1000954 C34.3722563,43.7525749 34.2879287,43.5082857 34.282542,43.3672278 C34.2750836,43.171919 34.5107441,42.9964901 34.4918803,42.8632438 C34.4805098,42.7829276 34.2000525,42.7728945 34.1835792,42.7083533 C34.1566035,42.6026645 34.1895911,42.4709222 34.282542,42.3131263 C34.2834246,42.4146208 34.353204,42.34528 34.4918803,42.1051041 C34.5608882,41.985588 34.3220391,41.8784707 34.4161495,41.6899683 C34.4527041,41.6167496 34.6306339,41.600325 34.7679487,41.451021 C34.8350287,41.3780841 34.8591568,41.1234534 34.8403331,40.6871288 C34.8687369,40.5399996 34.9836213,40.4704357 35.1849865,40.4784372 C35.3863516,40.4864386 35.6874472,40.5560025 36.0882733,40.6871288 C36.1987406,40.6273604 36.2847948,40.7588382 36.3464359,41.0815621 C36.3752375,41.2323543 36.268106,41.3952063 36.2967525,41.6291145 C36.3104889,41.7412768 36.2383883,42.1680887 36.2967525,42.401833 C36.3195224,42.4930245 36.3973691,42.5144157 36.5302926,42.4660067 C36.8718581,42.5143628 37.1062411,42.5143628 37.2334418,42.4660067 C37.3846593,42.4085203 37.5256048,42.2096794 37.6130143,42.1937893 C37.8707357,42.1469383 38.061882,42.3489 38.2344789,42.3131263 C38.6056762,42.2361891 38.7890397,42.1829981 38.7845693,42.1535532 C38.812795,42.0960342 38.8289227,42.0470282 38.8329523,42.0065352 C38.8449255,41.8862175 38.8260516,41.7390819 38.8329523,41.6899683 C38.8477183,41.5848754 38.6623042,41.4062936 38.6690008,41.3503567 C38.6901096,41.174034 38.7005965,41.0461442 38.7004615,40.9666872 C38.7003206,40.8837634 38.5769021,40.789763 38.5766083,40.7364162 C38.5753286,40.5040069 38.5858099,40.3616008 38.5766083,40.2503826 C38.5570942,40.0145178 38.4201271,39.8519888 38.4066024,39.7626586 C38.3708549,39.5265488 38.2904264,39.4438249 38.1653168,39.5144871 L33.2003784,39.8604217 L32.006822,39.2753297 L32.1760726,38.430167 C35.5734493,38.2512681 37.4270856,38.1618187 37.7369816,38.1618187 C38.0468776,38.1618187 38.21271,38.1157792 38.2344789,38.0237004 C38.2590503,37.9470521 38.2699849,37.8921812 38.2672828,37.8590878 C38.2165887,37.2382179 38.1522168,36.8687736 38.1653168,36.7285884 C38.1719834,36.6572486 38.3145755,36.6878404 38.3163261,36.6502029 C38.3191181,36.5901739 38.2672828,36.4999952 38.2672828,36.4698388 C38.2672828,36.3210398 38.2332941,36.2950765 38.1653168,36.3919491 C38.0130417,36.433954 37.9168062,36.443928 37.8766104,36.4218709 C37.8217491,36.3917663 37.8411522,36.2066123 37.8118752,36.1962296 C37.7202495,36.1637359 37.6558858,36.2194964 37.6130143,36.1962296 C37.5541358,36.1642757 37.5173954,36.0038262 37.4798807,35.9889122 C37.3431112,35.9345395 37.2060321,36.0195541 37.1397723,35.9889122 C36.986788,35.9181645 36.9334022,35.8039303 36.8622764,35.777384 C36.7947206,35.75217 36.6813698,35.876034 36.6377041,35.8580821 C36.4140449,35.7661309 36.3847732,35.679422 36.2967525,35.6358926 C36.2181429,35.5970173 36.3030937,35.4347914 36.2539743,35.4119545 C36.0873619,35.334492 35.9715275,35.3525598 35.9066245,35.3250936 C35.810063,35.2842297 35.7407869,35.3292141 35.7255354,35.3250936 C35.660123,35.3074209 35.6098939,35.2625657 35.5748483,35.1905278 C35.664451,35.0676217 35.7052126,34.9714593 35.6971332,34.9020405 C35.6913388,34.8522555 35.6367275,34.8154087 35.6274167,34.7876554 C35.5772633,34.6381595 35.408516,34.7372604 35.408516,34.5689429 C35.408516,34.4006253 35.5748483,34.3848295 35.5748483,34.3098649 C35.5748483,34.2349004 35.4403653,34.2959258 35.408516,34.1966806 C35.3487136,34.0103305 35.1969311,33.9056335 35.1849865,33.8148793 C35.1679387,33.6853517 35.3011168,33.4605981 35.2813937,33.3969382 C35.2255513,33.2166959 35.031521,33.2363347 34.9898586,33.1507249 C34.9409576,33.0502408 34.7420644,33.1187836 34.7022487,33.0429853 C34.4606353,32.5830187 34.399236,32.7828709 34.3666786,32.5855666 C34.3528317,32.5016515 34.4335548,32.4221072 34.6088481,32.3469337 C34.7149151,32.1635728 34.7679487,32.0718924 34.7679487,32.0718924 L35.5748483,32.0718924 L35.8218755,31.8171078 C36.0483275,31.8096314 36.2066198,31.8227457 36.2967525,31.8564509 C36.3868852,31.890156 36.4647319,31.9619699 36.5302926,32.0718924 L36.8622764,32.0820208 L37.0623812,31.8171078 C37.2518428,31.7838928 37.3810931,31.7838928 37.450132,31.8171078 C37.519171,31.8503229 37.5734651,31.9352511 37.6130143,32.0718924 C37.721032,31.9543783 37.8740201,31.8694501 38.0719784,31.8171078 C38.2699368,31.7647656 38.4381468,31.7778799 38.5766083,31.8564509 L39.1515715,31.7040785 Z M42.1207209,43.0908503 C42.0683081,43.1218534 42.0270237,43.2010389 41.9968676,43.3284067 L41.6947345,43.2784573 L40.8602922,43.2784573 C40.6660226,43.2784573 40.5240901,43.3284067 40.4784883,43.3284067 C40.3843928,43.3284067 40.2778008,43.2915452 40.1587121,43.2178223 C39.8869461,43.2351748 39.690353,43.2553864 39.5689328,43.2784573 C39.4874911,43.2939319 39.4678473,43.4200307 39.4434799,43.4263968 C39.3646192,43.4469998 39.3147854,43.4143364 39.2939787,43.3284067 C39.2029152,43.2759379 39.1012357,43.2759379 38.9889404,43.3284067 C38.8766451,43.3808754 38.8195955,43.4543445 38.8177916,43.548814 C38.7631235,43.4268572 38.6932967,43.3533881 38.6083112,43.3284067 C38.5233258,43.3034252 38.3432149,43.3034252 38.0679786,43.3284067 C37.9760825,43.3989182 37.8472612,43.4531404 37.6815149,43.4910733 C37.5157686,43.5290063 37.4133448,43.5290063 37.3742435,43.4910733 L37.1027241,43.3928871 C36.9520997,43.4356854 36.8444933,43.4571568 36.7799048,43.4573013 C36.6878024,43.4575073 36.5918776,43.4491567 36.5308108,43.4573013 C36.4055078,43.4740132 36.3674303,43.5045174 36.4165784,43.548814 C36.3763587,43.7695555 36.35924,43.9361925 36.3652224,44.048725 C36.3712048,44.1612576 36.4022447,44.2564872 36.4583421,44.3344139 C36.5634993,44.4066878 36.6345153,44.4656308 36.6713902,44.511243 C36.695844,44.5414911 36.6569685,44.5786734 36.6713902,44.6107729 C36.7106265,44.6981047 36.778853,44.7769432 36.8109892,44.7976456 C36.8764131,44.8397922 36.9382997,44.656017 36.9825225,44.688722 C37.098394,44.7744147 37.1384612,44.8254583 37.1027241,44.8418528 C37.1734253,44.9290921 37.2239591,44.9755014 37.2543255,44.9810806 C37.3499604,44.9986517 37.4223746,44.9017537 37.4662474,44.9171467 C37.5810567,44.9574282 37.6594498,45.0432102 37.7121667,45.0512083 C37.9468218,45.0868096 38.0289168,44.9788293 38.0289168,45.0227886 C38.0289168,45.094097 38.079266,45.1537777 38.1799644,45.2018306 C38.4492675,45.2463632 38.6320667,45.2634967 38.728362,45.253231 C38.8452157,45.2407737 38.953137,45.0977238 39.0107601,45.1036806 C39.1354926,45.116575 39.1960004,45.3162552 39.260524,45.3198977 C39.4169919,45.3287305 39.4677334,45.2737618 39.5515955,45.2787328 C39.7911431,45.2929321 39.9611461,45.3199897 40.054029,45.3198977 C40.1242817,45.319828 40.1781247,45.1747648 40.2212088,45.1755018 C40.3142845,45.1770941 40.3880748,45.3226551 40.4405222,45.3198977 C40.6993411,45.3062903 40.8287506,45.2669346 40.8287506,45.2018306 L40.9343566,45.0227886 C41.0454932,45.0487363 41.1453132,45.0675539 41.2338165,45.0792414 C41.3223199,45.090929 41.4525519,45.0721114 41.6245126,45.0227886 C41.7708238,44.8736498 41.8814245,44.7738117 41.9563147,44.7232744 C42.1112864,44.6186967 42.1423042,44.4688291 42.1884156,44.4213887 C42.2243124,44.3844573 42.0488142,44.3641497 42.0802463,44.3344139 C42.216144,44.2058499 42.2522004,44.1732219 42.1884156,44.2365302 C42.386011,44.2220056 42.5062758,44.1859966 42.54921,44.1285033 C42.5921442,44.0710099 42.6379451,43.9602781 42.6866126,43.7963078 L42.6262847,43.2509536 L42.4532233,43.0584639 C42.2839679,43.0490516 42.1731338,43.0598471 42.1207209,43.0908503 Z M27.2978697,20.4205509 C27.4488548,20.4587175 27.4488548,20.622976 27.5572328,20.622976 C27.6656108,20.622976 28.1835021,20.5565861 28.269753,20.9881762 C28.3560039,21.4197664 28.2330486,21.800887 28.0966982,21.9304381 C27.9603479,22.0599891 27.633497,22.129069 27.2978697,22.129069 C27.1779075,22.129069 26.5770816,22.4214888 25.811252,22.7152176 C25.6633599,22.7719406 25.4493394,22.6954558 25.296959,22.7624977 C25.2376868,22.7885753 25.2543644,22.9301609 25.1944364,22.9568075 C24.7168152,23.1691788 24.223083,23.397603 23.7884561,23.6099123 C23.7192673,23.6437101 23.5515191,23.5765086 23.4861789,23.6099123 C23.4301293,23.6385665 23.4099868,23.7463975 23.357096,23.7743335 C22.8694024,24.0319245 22.5218399,24.2365966 22.4806793,24.3749181 C22.2647388,24.6762364 22.2043677,25.6446468 22.1288488,26.4484009 C22.1000361,26.7550574 22.0064501,26.8643814 21.9931987,27.1585155 C21.9882911,27.2674475 21.9248138,27.3179189 21.923175,27.4219916 C21.9178467,27.7603557 22.0526367,28.0683924 22.0526367,28.306555 C22.0526367,28.5833527 22.9553531,27.8476338 23.85556,27.0742713 C23.910922,27.0267102 24.04909,27.0440916 24.1035549,26.995948 C24.1771584,26.930887 24.08769,26.7781403 24.1578946,26.7121421 C24.7509446,26.1546262 25.3743314,25.6802586 25.537671,25.6186754 C25.7355595,25.5440664 26.11891,25.5909699 26.2793877,25.9676737 C26.3511879,26.1362167 26.5119006,26.5923809 26.3374237,26.7790009 C26.1358291,26.9511598 25.9645176,27.2250403 25.7391241,27.3785108 C25.5655906,27.4966698 25.3371657,27.494448 25.178664,27.6209849 C25.1026603,27.681661 25.0841798,27.9172695 25.0118986,27.9796469 C24.6396059,28.3009284 24.2561826,28.4652013 23.9207194,28.7614033 C23.859971,28.815042 23.8954882,28.9353081 23.85556,28.9956404 C23.7649274,29.1325882 23.6231467,29.2159686 23.4861789,29.3262933 C23.3904139,29.40343 23.123588,29.2940306 23.0319161,29.3710373 C22.9643036,29.4278336 22.9629419,29.6749082 22.8853936,29.7547709 C22.779078,29.8642595 22.574856,30.0176841 22.2727276,30.2150447 L22.2727276,31.1674523 C22.2727276,31.2648902 22.0526367,31.2517275 22.0526367,31.3396695 C22.0526367,31.4388848 22.2727276,31.6379094 22.2727276,31.7250382 L22.2727276,32.6671774 L22.3076673,32.6678142 C22.3876318,32.6662716 22.5993361,32.6461297 22.8853936,32.4960913 C23.0534531,32.4079433 23.2710595,32.1719759 23.6732198,31.9446591 C23.851359,31.8439679 24.1470443,31.7777062 24.5180546,31.5807661 C24.7165057,31.475424 24.9905748,31.2607052 25.4379363,31 C25.6689529,30.8653723 25.9694832,30.4238076 26.2793877,30.5656668 C26.4520644,30.6447097 26.6926726,30.8641323 26.8104743,31.1197294 C26.880688,31.2720736 26.8928996,31.4552346 26.894617,31.5372936 L26.8945959,31.5807661 C26.8945959,31.5807661 26.6973877,31.6931305 26.3374237,31.9205916 C26.2936871,31.9482287 26.1235522,31.9067485 26.0636816,31.9446591 C25.9070435,32.043844 25.7183563,32.2674489 25.2607791,32.576168 C25.1366954,32.6598851 24.9111916,32.6826571 24.6925501,32.8251711 C24.542712,32.922838 24.355618,33.1390667 24.0462226,33.3543899 C23.9126104,33.4473771 23.5811311,33.4491252 23.3032151,33.6291333 C23.2248155,33.6799133 23.2391559,33.8439069 23.1165876,33.952737 C23.0209569,34.0376488 22.8089875,34.0962598 22.4806793,34.1285699 L22.2716672,36.1362338 C22.1764549,36.1362338 22.1034448,36.2070814 22.0526367,36.3487767 C22.0441507,36.3724427 22.4275852,36.5125512 22.417942,36.6018302 C22.4140476,36.6378855 22.3714929,36.7728118 22.2716672,36.845602 C22.1985377,36.8989261 22.0615289,36.8844817 22.0526367,36.9459693 C22.0406693,37.0287209 22.1427777,37.2131045 22.1288488,37.3740061 C22.1223915,37.4485984 22.0078678,37.787352 22.0526367,37.9038448 C22.0850278,37.9881295 22.2831828,37.8370693 22.2716672,37.9550306 C22.2603888,38.0705624 22.029614,38.4279192 21.9931987,38.6428132 C21.9453171,38.9253725 21.8999042,39.4744031 21.8569599,40.2899049 C21.8569599,40.4993298 21.8096803,40.7043002 21.7151212,40.9048159 C21.6944753,40.9485961 21.5310999,40.8690198 21.4767219,40.9539862 C21.4323104,41.0233798 21.5139626,41.4796075 21.4135536,41.6457975 C21.3535416,41.7451251 21.3022182,41.9751512 21.1468717,42.1495271 C21.0283725,42.2825421 20.769432,42.5001334 20.3700501,42.8023013 C20.2402529,42.7873236 20.1779663,42.7309287 20.1831901,42.6331164 C20.199164,42.3340154 20.2588666,42.0478091 20.317199,41.782637 C20.4691959,41.0916766 20.5164078,39.7698722 20.521822,39.3318626 C20.524243,39.1360052 20.447125,39.2050152 20.4439586,39.0321212 C20.4388026,38.7505919 20.4361855,38.4713551 20.435287,38.2131907 L20.4351258,37.844096 C20.4360485,37.4955007 20.4399155,37.2154458 20.4439586,37.0673139 C20.4496795,36.8577083 20.5794561,36.720928 20.5812977,36.6018302 C20.5835801,36.4542219 20.467606,36.3445633 20.4691959,36.2439328 C20.4707103,36.1480865 20.4721264,36.0590896 20.4734444,35.9769423 C20.4755167,35.8477782 20.5812977,35.5881363 20.5812977,35.4677197 C20.5812977,34.9514338 20.5453466,34.6932909 20.4734444,34.6932909 C20.2474873,34.4170903 20.0994226,34.262065 20.0292503,34.2282151 C19.8226815,34.1285699 19.5387683,34.2310592 19.4300927,34.1285699 C19.284869,33.9916128 19.2544686,33.6917123 19.1657779,33.6291333 C18.9141518,33.4515893 18.6436962,33.4189839 18.5147758,33.320903 C18.2118083,33.0904092 17.9878084,32.9773027 17.8359823,32.867452 C17.5398195,32.6531697 17.3230844,32.6005246 17.178605,32.4960913 C16.9724934,32.3471086 16.7913617,32.196712 16.6791321,32.1172207 C16.5005981,31.9907666 16.2259216,32.0209446 16.1281059,31.9446591 C15.917403,31.7803342 15.9277352,31.3372064 15.8320938,31.2628522 C15.6597881,31.1288972 15.5023061,31.1539968 15.4670742,31.1197294 C15.2222317,30.8815902 15.9189435,30.660387 16.0886312,30.6413989 C16.258319,30.6224107 16.316661,30.8457519 16.4106989,30.8892362 C16.5812794,30.9681147 16.7072758,30.8520374 16.7729436,30.8892362 C16.9256114,30.9757178 16.923858,31.0439341 17.005237,31.0849095 C17.2946851,31.2306505 17.4950563,31.268395 17.6176425,31.3396695 C17.8334202,31.4651278 17.8597343,31.6138111 17.9748593,31.6750087 C18.2009648,31.7952008 18.3857019,31.7966441 18.5147758,31.8633811 C18.6620509,31.9395291 18.7958356,31.8956607 18.9076424,31.9446591 C19.1120945,32.0342586 19.2569825,32.1930465 19.3749554,32.2575485 C19.7447632,32.4597416 19.9388645,32.6957296 20.0292503,32.7391317 C20.2786953,32.8589121 20.4169314,32.8349273 20.4439586,32.6671774 C20.3865981,32.3932077 20.3619619,32.2098888 20.3700501,32.1172207 C20.3849931,31.9460139 20.4433286,31.8705753 20.4439586,31.7754429 C20.4447948,31.6491664 20.3750264,31.5594535 20.3700501,31.452446 C20.3530573,31.0870491 20.3778452,30.8083251 20.3700501,30.6798019 C20.3640596,30.5810339 20.2505362,30.6501398 20.2466065,30.5876797 C20.2410091,30.4987119 20.2359634,30.4201146 20.2314693,30.3518879 C20.2240698,30.2395527 20.3241802,30.1632852 20.317199,30.0621083 C20.3079274,29.9277373 20.1917239,29.772718 20.1831901,29.6580278 C20.1762351,29.5645573 20.268366,29.5103838 20.2622833,29.4351221 C20.2373312,29.1263878 20.183532,28.9603035 20.1008859,28.9368694 C19.7883524,28.9524853 19.585877,28.9280765 19.4934597,28.8636432 C19.3613893,28.7715637 19.2743428,28.5429246 19.2004749,28.5089973 C18.9566828,28.3970242 18.8391708,28.4819395 18.7111629,28.4085767 C18.5462873,28.3140845 18.4693442,28.1725066 18.342452,28.0707499 C18.1645036,27.9280503 17.9535038,27.8292991 17.8359823,27.7469799 C17.0804211,27.2177394 16.6164243,26.6199871 16.4106989,26.4484009 C16.211975,26.2826542 16.1078547,26.0104577 16.0886312,25.9676737 C15.9803652,25.7267157 16.8065546,25.9733786 17.1357035,26.0710704 C17.2874939,26.1161219 17.3947272,26.3141554 17.5330443,26.363515 C17.625054,26.3963495 17.749222,26.2609147 17.8359823,26.2906054 C18.0398346,26.3603667 18.1769266,26.5399425 18.342452,26.6169403 C18.4905806,26.6858455 18.5848611,26.5793722 18.7111629,26.6169403 C18.8802796,26.6672435 19.0695713,26.8524201 19.1657779,26.8809744 C19.3348482,26.9311546 19.4660586,27.2070416 19.5892763,27.2436128 C19.9203937,27.3418888 20.1008859,27.1585155 20.1008859,27.1585155 C20.1008859,27.1585155 20.0984419,27.0729767 20.0969833,26.9277932 L20.0961628,26.6076398 C20.0982714,26.1512822 20.1151084,25.4814408 20.1831901,24.8738358 C20.3096341,24.5602909 20.3327825,24.271059 20.4734444,24.077444 C20.5564497,23.9631909 20.7627853,23.9267137 20.8329856,23.8181298 C21.0364323,23.5034443 21.1677711,23.1738356 21.3340082,23.0049787 C21.4293343,22.9081503 21.9448746,22.5855004 22.6778537,22.2673701 C22.8057734,22.2118499 23.01525,22.2555529 23.1498075,22.1942206 C23.3938119,22.0830015 23.6011539,21.8705512 23.85556,21.7581606 C23.9399943,21.7208596 24.0749957,21.8012241 24.1578946,21.7581606 C24.4442514,21.609407 24.7110416,21.4018173 25.0118986,21.2808533 C25.1524556,21.2243402 25.403838,21.3360819 25.537671,21.2808533 C25.7490583,21.1936204 25.8310546,20.9727109 26.0148495,20.884706 C26.3274402,20.7350308 26.5837173,20.8262861 26.8104743,20.7487385 C27.0663972,20.6612166 27.2748132,20.4148391 27.2978697,20.4205509 Z M40.0136658,32.8358721 L39.9014878,32.8384701 C39.7662668,32.8526278 39.5839042,32.9132735 39.3544,33.020407 C38.6901558,33.0439018 38.2510923,33.0617171 38.0372095,33.073853 C37.9426263,33.0792197 37.8512989,33.1127227 37.7764309,33.1144211 C37.6535937,33.1172077 37.580531,33.0234767 37.4697961,33.020407 C37.3460048,33.0169753 37.1627584,33.0347906 36.9200571,33.073853 C36.631423,33.1708466 36.4891735,33.2809783 36.4933084,33.4042481 C36.4957166,33.4760389 36.3140478,33.5597975 36.6460258,33.8443472 C36.6919867,33.8837419 36.6937741,34.1402872 36.7438659,34.28542 C36.7673966,34.3535962 36.8702441,34.390134 36.9200571,34.5132949 C36.9437517,34.5718788 36.9639251,34.6934611 36.9805773,34.8780416 C37.1527729,34.8507243 37.3158458,34.8507243 37.4697961,34.8780416 C37.7007216,34.9190175 37.5680589,34.9544385 37.9057789,35.0422112 C38.0281796,35.0740229 38.1779036,35.0304618 38.356727,35.0422112 C38.4567995,35.0487864 38.560237,35.0976471 38.6670398,35.1887933 C38.7950358,35.2049013 38.8801718,35.2049013 38.9224477,35.1887933 C38.9921345,35.1622412 39.0695477,35.1209271 39.1358444,35.1159365 C39.1835923,35.1123422 39.210344,34.9600859 39.2760598,34.9661909 C39.3229006,34.9705424 39.3779889,35.0754003 39.4644042,35.1159365 C39.4958067,35.130667 39.5526362,35.130667 39.6348928,35.1159365 C39.6792796,35.1054818 39.7256835,35.0809067 39.7741045,35.0422112 C39.8020022,35.0199169 39.7778156,34.9006957 39.8192401,34.8780416 C39.871505,34.8494592 39.9694789,34.9072009 40.0432844,34.8780416 C40.0884451,34.8601993 40.0855717,34.7505195 40.1655149,34.7092487 C40.1903523,34.6964263 40.2245399,34.8407863 40.27732,34.8281317 C40.3068338,34.8210554 40.4163724,34.8644065 40.574162,34.8281317 C40.6186491,34.8179044 40.6915554,34.7782767 40.7928809,34.7092487 C40.8676055,34.6223345 40.9071669,34.5570166 40.9115649,34.5132949 C40.9328677,34.3015205 41.0931365,34.2209609 41.0931365,34.2209609 C41.0931365,34.2209609 41.1602555,34.1476559 41.2944935,34.0010457 C41.4212527,33.964515 41.4976825,33.9122821 41.5237831,33.8443472 C41.5498837,33.7764123 41.5498837,33.6297126 41.5237831,33.4042481 C41.5663646,33.2115106 41.5663646,33.0835636 41.5237831,33.020407 C41.4812016,32.9572504 41.369845,32.9200342 41.1897133,32.9087583 L40.7527993,32.9087583 C40.5595288,32.9209322 40.4227344,32.9209322 40.342416,32.9087583 C40.2701294,32.8978018 40.198872,32.8670441 40.1096202,32.8487782 L40.0136658,32.8358721 Z M36.2292311,16.5317228 L36.4916766,16.8856241 C36.4394432,16.8579645 36.4644527,16.9187352 36.5667051,17.0679362 C36.6034,17.1214793 36.6882297,17.0747664 36.7398107,17.1437772 C36.8012455,17.2259715 36.9035903,17.4099442 37.0468452,17.6956952 C36.9879281,17.7964321 36.9879281,17.9743561 37.0468452,18.2294673 C37.1352207,18.612134 37.3403931,18.714287 37.3403931,18.9667604 C37.3403931,19.1244058 37.38063,19.3011879 37.2089569,19.4406995 C37.2074077,19.4419585 37.2160181,19.4459534 37.2347881,19.4526841 L37.3215773,19.4810838 C37.4388454,19.5176911 37.6475505,19.5789209 37.9476926,19.6647734 C38.4247757,19.7662831 38.8332816,19.8656277 39.1732104,19.9628073 C39.3778777,20.021318 39.6180445,20.2617668 39.9189861,20.3604449 C40.0222667,20.3943104 40.1842665,20.3057106 40.4087235,20.4205509 C40.451191,20.4422788 40.5203952,20.5324491 40.616336,20.691062 C40.7874064,20.5931918 40.9916932,20.6093307 41.2291962,20.7394787 C41.5854508,20.9347006 41.6490052,21.190505 41.8509399,21.3676057 C42.0528746,21.5447064 42.1364409,21.1464333 42.406761,21.7309164 C42.5110847,21.9564838 42.6890703,22.2112014 42.730175,22.4874013 C42.7501093,22.6213481 42.7688397,22.8268443 42.7863661,23.1038898 C43.0010632,23.233301 43.114509,23.4441934 43.1267035,23.736567 C43.1312853,23.8502869 43.0047028,23.9348394 42.9795729,24.0927407 C42.9532535,24.2581156 42.9157424,24.5777846 42.8670397,25.0517476 C42.4948743,25.519921 42.2066308,25.8505523 42.002309,26.0436416 C41.7979873,26.2367308 41.4799924,26.4790102 41.0483244,26.7704799 C40.578658,26.9832676 39.9727949,27.2410294 39.230735,27.5437654 C38.8752792,27.6887796 38.6249775,27.6157859 38.0676816,27.8303241 C37.7680732,27.9456621 37.1073392,28.2823201 36.0310591,28.6465234 C35.8588153,28.7048091 35.5690014,28.7671125 35.1616173,28.8334335 C34.9796722,28.7842059 34.8156242,28.7842059 34.6694732,28.8334335 C34.5233223,28.8826611 34.3389673,29.0009235 34.1164082,29.1882209 C33.7452502,29.4266588 33.4673348,29.6632988 33.2826619,29.8981408 C33.097989,30.1329829 32.9751949,30.527599 32.9142796,31.0819892 C32.8194483,31.2905189 32.7660761,31.439705 32.7541629,31.5295476 C32.7348143,31.6754645 32.8177694,31.8025972 32.8038137,31.9171047 C32.776969,32.1373674 32.7255436,32.4214091 32.6495375,32.7692296 C32.3073646,32.8426063 32.0620316,32.7897428 31.9135384,32.6106391 C31.7650452,32.4315354 31.6659764,32.0984644 31.6163322,31.6114261 C31.551136,31.2016565 31.5293394,30.9207268 31.5509426,30.7686371 C31.5852941,30.5267961 31.7919728,30.3736783 31.8146766,30.2152859 C31.8587976,29.9074781 31.8917515,29.6817093 31.9135384,29.5379796 C32.0190419,29.3357378 32.2016539,29.1238033 32.4613743,28.9021762 C32.7210947,28.680549 33.1400909,28.3791134 33.7183629,27.9978693 L34.332,27.705 L33.9950971,27.8568737 L34.0286224,27.6809603 C34.0465026,27.5871398 34.0554427,27.5402296 34.0554427,27.5402296 C34.0554427,27.5402296 34.1057597,27.3032369 34.0554427,27.1988565 C33.9357069,26.9504696 33.7975081,26.8941749 33.7215094,26.8084828 C33.7087482,26.7940938 33.5668291,26.5266216 33.5668291,26.5266216 L33.5668291,26.2503313 C33.5668291,26.2503313 33.4527491,26.1893828 33.2245891,26.0674858 C33.038338,25.910481 32.9297035,25.798469 32.8986857,25.7314499 C32.7008418,25.3039748 32.5815707,25.1298179 32.5815707,25.1298179 C32.5815707,25.1298179 32.4680229,25.0895735 32.3382679,24.9900158 C32.2470443,24.9200223 32.2356908,24.8811351 32.1527043,24.806849 C32.0538102,24.7183232 31.9712044,24.7508069 31.9712044,24.7508069 C31.9712044,24.7508069 31.8077151,24.6607002 31.7837918,24.5171994 C31.7758819,24.4697531 31.7758819,24.387054 31.7837918,24.2691023 C31.5642514,24.3284693 31.4183012,24.3522691 31.3459412,24.3405016 C31.2735812,24.3287342 31.2441822,24.2764184 31.2577444,24.1835544 C31.0996459,24.1753383 30.9761558,24.1393091 30.8872743,24.0754669 C30.7983927,24.0116246 30.7126947,23.9326299 30.6301804,23.8384829 L30.2439814,23.7752215 L30.2602078,23.741786 C30.1612798,23.8502124 30.0832089,23.9435107 30.063069,23.9712541 C29.996592,24.0628283 29.9664603,24.1742554 29.9726738,24.3055354 L29.6280243,24.7201359 C29.6408973,24.8383182 29.6408973,24.9200303 29.6280243,24.9652721 C29.6064546,25.0410786 29.5165192,25.0973635 29.5098153,25.141798 C29.4646224,25.4413469 29.4842432,25.6538268 29.4552467,25.7631808 C29.4349535,25.8397127 29.2231616,25.9122231 29.2161819,25.9634773 C29.2051151,26.0447438 29.4169708,26.1091596 29.4087801,26.1767891 C29.3692291,26.503355 29.356483,26.726467 29.3705418,26.8461252 C29.0746904,26.9144629 28.8388325,26.9486318 28.662968,26.9486318 C28.4871036,26.9486318 28.3655969,26.8892478 28.2984482,26.7704799 C28.2874593,26.4802884 28.2874593,26.2823915 28.2984482,26.1767891 C28.3091183,26.07425 28.410271,25.9487179 28.4076174,25.8921166 C28.4034463,25.8031468 28.2446445,25.8520297 28.2083394,25.6934469 C28.1720343,25.5348642 28.2641232,25.2626038 28.2984482,25.0517476 C28.3491521,24.7402764 28.5980655,24.6767031 28.662968,24.5312583 C28.7135117,24.4179914 28.6311039,24.3022591 28.662968,24.2328878 C28.8782592,23.7641775 29.0455757,23.4326634 29.1649175,23.2383454 C29.3958611,22.8623123 29.7774469,22.6469793 29.8741003,22.4874013 C30.0836639,22.1414047 30.3189779,21.8892431 30.5800422,21.7309164 C30.8373148,21.7452377 31.004096,21.7320906 31.0803859,21.6914752 C31.2471552,21.6026901 31.2735953,21.3935418 31.3593583,21.3676057 C31.5280539,21.3165894 31.7253487,21.4048867 31.8146766,21.3676057 C32.0807733,21.2565505 32.1342646,21.0333522 32.2707974,20.98777 C32.4029652,20.9436451 32.5411345,20.9331557 32.667809,20.9311231 L32.9006475,20.9308734 C32.9696955,20.9295752 33.0284506,20.9245753 33.0717287,20.9084134 C33.4155238,20.780025 33.5211377,20.618111 33.6871036,20.5604337 C34.0637332,20.4295457 34.3309025,20.4694638 34.4409842,20.4205509 C34.74061,20.2874173 34.9808211,20.1348361 35.1616173,19.9628073 L35.7558042,19.6647734 C35.8433195,19.3941796 35.8814704,19.1867928 35.8702569,19.0426129 C36.0408536,18.722126 35.9186449,18.4544151 35.8702569,18.2294673 C35.785704,17.8363941 35.6155598,17.5066999 35.5827439,17.2198859 C35.5311481,16.7689343 35.5538281,16.5395466 35.6507836,16.5317228 L36.2292311,16.5317228 Z M37.3403931,20.691062 C37.0157479,20.7359148 36.8589688,20.8841011 36.7398107,20.9084134 C36.5178675,20.9536972 36.5219258,21.0282488 36.4139015,21.0473366 C36.2361304,21.0787487 36.0761368,21.098774 35.933921,21.1074124 L35.797631,21.1122551 C35.797631,21.1122551 35.8677757,21.314947 36.0257724,21.425674 C36.1120843,21.486163 36.2726168,21.4299793 36.3511027,21.50492 C36.42414,21.5746583 36.3404203,21.6576611 36.4208926,21.7257599 C36.5330269,21.8206524 36.6862196,21.7912397 36.7800065,21.8970825 C36.9051324,22.0382929 36.7168508,22.1979416 36.8496221,22.3306013 C36.9173726,22.3982949 37.0341085,22.2810452 37.1064785,22.3306013 C37.2843044,22.4523695 37.416263,22.7072389 37.5131136,22.8187852 C37.6156399,22.9368685 37.5636706,23.1462672 37.5636706,23.1462672 C37.5636706,23.1462672 37.9010715,23.2405934 38.1273619,23.5382045 C38.1829463,23.6113077 38.0651741,23.8552361 38.1273619,23.9291209 C38.2134687,24.0314236 38.4252896,24.0546285 38.4929408,24.1586573 C38.551957,24.2494077 38.3083866,24.2557947 38.3656947,24.3469883 C38.4315352,24.4517594 38.5205248,24.4728904 38.5763605,24.5774373 C38.6237332,24.6661381 38.5355776,24.7792902 38.5763605,24.8629181 C38.6311961,24.9753623 38.6426994,25.1337395 38.6667363,25.2489528 C38.6979024,25.3983383 38.7345841,25.4965012 38.7533273,25.5484935 C38.5812956,25.9792277 38.3656947,25.8626787 38.3656947,25.8626787 C38.3656947,25.8626787 38.0187619,25.6834691 37.3429915,25.0060758 C37.2796901,24.9426224 37.2321945,24.7361618 37.1625289,24.66647 C37.046913,24.5508105 36.9129757,24.4826586 36.7800065,24.3469883 C36.6157246,24.1793692 36.4304982,23.7875132 36.2397626,23.5994896 C36.1431712,23.5042715 35.9546927,23.5325419 35.8521198,23.4311364 C35.7638778,23.3438985 35.7564991,23.2379609 35.6633573,23.1462672 C35.6466827,23.1298518 35.628798,23.1224398 35.6102697,23.1194874 L35.4959093,23.1189417 L35.4414347,23.0906526 C35.42396,23.073385 35.4073746,23.0474519 35.3911939,23.0171488 L35.2950881,22.8172525 L35.2434072,22.7424042 C35.1348299,22.6353227 34.9631431,22.6162804 34.8491531,22.5033316 C34.7783231,22.4331486 34.7786005,22.2368657 34.7054852,22.1648061 C34.6530365,22.1131146 34.5029898,22.1387735 34.4494829,22.0859771 C34.3892819,22.0265754 34.321831,21.9364478 34.2471302,21.815594 L33.7844717,21.8147228 L33.7685092,21.8225248 C33.6506309,21.8912453 33.6308572,21.987504 33.5401871,22.0137452 C33.2269386,22.1044037 33.1162833,21.9693508 32.9875091,22.0137452 C32.7726392,22.0878208 32.6507285,22.2188073 32.5467796,22.2465314 C32.327908,22.3049063 32.0936485,22.23934 32.0536558,22.2465314 C31.5992222,22.3282458 31.6784378,22.4265539 31.6163322,22.4874013 C31.5640893,22.5385857 31.5045072,22.5719782 31.4417518,22.6011094 L31.5298801,23.1017626 C32.042411,23.1254461 32.2986765,23.1372879 32.2986765,23.1372879 C32.2986765,23.1372879 32.3929746,23.2224869 32.5815707,23.3928851 C32.7202089,23.5014347 32.8259139,23.569676 32.8986857,23.5976088 C32.9714575,23.6255416 33.05389,23.6398244 33.145983,23.6404572 L33.2559871,23.8944846 C33.2481572,23.7557502 33.3517712,23.7827356 33.5668291,23.9754407 C33.6805575,24.0773483 33.8070522,24.2643579 33.954926,24.4336981 C34.0162052,24.5038729 34.191924,24.66647 34.191924,24.806849 C34.191924,24.8579258 34.2596655,24.8940573 34.3951485,24.9152435 L34.6325175,25.2120336 C34.7452531,25.2843715 34.8252762,25.3728882 34.8725867,25.4775837 C34.951877,25.6530483 34.8267192,25.7230863 34.9330297,25.8770491 C35.0420226,26.0348967 35.1155704,26.1593241 35.1536729,26.2503313 C35.2689408,26.3117206 35.3216861,26.3860309 35.3119089,26.4732621 C35.3021317,26.5604932 35.2493863,26.641051 35.1536729,26.7149353 C35.2971082,26.8322904 35.3776459,26.9227891 35.395286,26.9864314 C35.4108618,27.0426262 35.4126845,27.1131651 35.4007541,27.1980481 L35.5774013,27.1154043 L36.6604974,26.6890954 C36.8001447,26.7355081 36.9289273,26.7355081 37.0468452,26.6890954 C37.1323526,26.6554395 37.0604022,26.4650522 37.2089569,26.3428706 C37.2464953,26.3119965 37.3620636,26.29749 37.5556618,26.2993513 C37.7081254,26.3794374 37.813108,26.4170565 37.8706098,26.4122085 C38.0689665,26.3954849 38.2001145,26.2350915 38.347548,26.1767891 C38.559091,26.0931348 38.8343118,25.9320207 39.1732104,25.6934469 C39.7144827,25.5618532 40.1048432,25.4093076 40.3442918,25.2358103 C40.5837404,25.0623129 40.8184179,24.7619744 41.0483244,24.3347948 C40.9828347,23.6817134 40.9160691,23.2003582 40.8480277,22.890729 C40.7799862,22.5810998 40.6767338,22.2887719 40.5382704,22.0137452 C40.2592051,21.829665 40.0381051,21.6821246 39.8749705,21.5711242 C39.6808355,21.4390304 39.5032755,21.4517733 39.3621592,21.3676057 C39.205669,21.2742685 39.0921962,21.089196 39.0118106,21.0473366 C38.8651907,20.970987 38.7000337,21.1533762 38.6249775,21.1122551 C38.4289809,21.0048743 38.3307766,20.8386791 38.2827202,20.8194258 C38.1380829,20.7614783 37.9652592,20.7614783 37.7642492,20.8194258 C37.5861903,20.7194107 37.4449049,20.6766227 37.3403931,20.691062 Z" id="形状结合" fill="#000000" mask="url(#mask-2)"></path>
        </g>
    </g>
</svg>